<svg width="123" height="33" viewBox="0 0 123 33" fill="none" xmlns="http://www.w3.org/2000/svg">
<path d="M17 12.7874H12V19.7624H17V12.7874Z" fill="#1E1E1E"/>
<path d="M0 0V32.55H29V0H0ZM23.2045 26.045H5.80112V6.51125H23.2045V26.045Z" fill="#1E1E1E"/>
<path d="M39 4.65015H44V27.9002H39V4.65015Z" fill="#1E1E1E"/>
<path d="M53.3332 10.2959H47V4.65015H65V10.2959H58.667V27.9002H53.3387V10.2959H53.3332Z" fill="#1E1E1E"/>
<path d="M68.0053 4.65635H73.1368V10.1214L78.1156 10.1402C79.9452 10.1402 81.3838 10.7446 82.4315 11.9474C83.4794 13.1563 84 14.9322 84 17.2753V27.9002H78.8691V18.1041C78.8691 17.1071 78.6252 16.3343 78.1437 15.7797C77.6625 15.2252 76.9937 14.9509 76.1499 14.9509L73.1309 14.9946V27.9002H68V4.65015L68.0053 4.65635Z" fill="#1E1E1E"/>
<path d="M92.8844 29.0626C91.0551 29.0626 89.6165 28.4692 88.5685 27.2889C87.5206 26.1023 87 24.3591 87 22.0594V11.6312H92.1309V21.246C92.1309 22.2245 92.3748 22.983 92.8563 23.5273C93.3375 24.0717 94.0063 24.3408 94.8501 24.3408C95.6941 24.3408 96.4074 24.0044 96.991 23.3316C97.574 22.6588 97.8691 21.7475 97.8691 20.5915V11.625H103V28.5733H97.8691V26.2918H97.5687C97.2855 26.8362 96.9229 27.301 96.4808 27.6925C96.102 28.0411 95.6148 28.353 95.0312 28.6405C94.4476 28.9219 93.7341 29.0626 92.8903 29.0626H92.8844Z" fill="#1E1E1E"/>
<path d="M116.482 29.0627C115.728 29.0627 115.08 28.9153 114.543 28.6207C114.007 28.3259 113.55 27.9929 113.173 27.6277C112.737 27.2178 112.381 26.731 112.095 26.1608H111.813V28.5502H107V4.65015H111.813V10.3129L116.482 10.2809C117.369 10.2809 118.203 10.4987 118.99 10.9279C119.77 11.357 120.461 11.9784 121.056 12.7855C121.651 13.5926 122.124 14.5791 122.474 15.7386C122.825 16.898 123 18.2112 123 19.6654C123 21.1195 122.825 22.4326 122.474 23.5921C122.124 24.7516 121.651 25.738 121.056 26.5452C120.461 27.3523 119.77 27.9737 118.99 28.4029C118.203 28.8321 117.369 29.0498 116.482 29.0498V29.0627ZM114.926 24.111C115.85 24.111 116.599 23.733 117.178 22.9836C117.752 22.2341 118.044 21.1259 118.044 19.6717C118.044 18.2176 117.757 17.1094 117.178 16.36C116.604 15.6105 115.85 15.2325 114.926 15.2325H111.813V19.6717C111.813 21.1259 112.1 22.2341 112.679 22.9836C113.253 23.733 114.007 24.111 114.931 24.111H114.926Z" fill="#1E1E1E"/>
</svg>
