<svg width="19" height="18" viewBox="0 0 19 18" fill="none" xmlns="http://www.w3.org/2000/svg">
<path d="M8.85449 0.942383C9.2033 0.793541 9.59202 0.764633 9.95898 0.860352C10.3257 0.956061 10.6502 1.17069 10.8818 1.4707C11.1135 1.77096 11.2398 2.14029 11.2393 2.51953V6.22754H16.207C16.528 6.22754 16.8452 6.29643 17.1367 6.43066C17.4283 6.56495 17.6878 6.76092 17.8965 7.00488C18.105 7.24873 18.2582 7.53504 18.3457 7.84375C18.4332 8.15255 18.4521 8.47687 18.4023 8.79395V8.79492L17.5508 14.2441C17.4439 14.9281 17.0963 15.5518 16.5703 16.002C16.0443 16.4521 15.374 16.6992 14.6816 16.6992H7.4043C6.97208 16.699 6.54533 16.6022 6.15527 16.416L6.1543 16.415L5.88477 16.2871H5.88379C5.62161 16.1617 5.40019 15.9646 5.24512 15.7188C5.08975 15.4724 5.00777 15.1867 5.00781 14.8955V7.4873C5.00772 7.22347 5.07527 6.96364 5.2041 6.7334L8.03125 1.68359V1.68262C8.21601 1.35154 8.5058 1.09124 8.85449 0.942383ZM2.03223 7.2373C2.08011 7.2373 2.12628 7.25621 2.16016 7.29004C2.19404 7.32392 2.21289 7.37005 2.21289 7.41797V15.7305C2.21283 15.7783 2.19398 15.8246 2.16016 15.8584C2.1263 15.8921 2.08002 15.9111 2.03223 15.9111H1.35742C1.13012 15.9111 0.911733 15.8208 0.750977 15.6602C0.590227 15.4994 0.50002 15.281 0.5 15.0537V8.09473C0.5 7.98226 0.522363 7.8705 0.56543 7.7666C0.608465 7.66284 0.671529 7.56867 0.750977 7.48926C0.830545 7.40977 0.925355 7.34667 1.0293 7.30371C1.13308 7.26084 1.24416 7.23821 1.35645 7.23828H1.3584L2.03223 7.2373Z" fill="black" stroke="black"/>
</svg>
