<svg width="263" height="44" viewBox="0 0 263 44" fill="none" xmlns="http://www.w3.org/2000/svg">
<path d="M157.04 40.63V16.388H162.038V18.802H162.208C162.752 17.9407 163.534 17.2607 164.554 16.762C165.574 16.2407 166.673 15.98 167.852 15.98C169.28 15.98 170.606 16.354 171.83 17.102C173.077 17.85 174.063 18.9267 174.788 20.332C175.536 21.7373 175.91 23.358 175.91 25.194C175.91 27.03 175.536 28.6507 174.788 30.056C174.063 31.4613 173.077 32.538 171.83 33.286C170.606 34.034 169.28 34.408 167.852 34.408C166.741 34.408 165.699 34.1813 164.724 33.728C163.772 33.2747 163.035 32.6627 162.514 31.892H162.344V40.63H157.04ZM166.458 29.818C167.251 29.818 167.954 29.6367 168.566 29.274C169.178 28.8887 169.643 28.3447 169.96 27.642C170.3 26.9393 170.47 26.1233 170.47 25.194C170.47 24.242 170.3 23.426 169.96 22.746C169.643 22.0433 169.178 21.5107 168.566 21.148C167.954 20.7627 167.251 20.57 166.458 20.57C165.619 20.57 164.883 20.7627 164.248 21.148C163.636 21.5107 163.16 22.0433 162.82 22.746C162.503 23.426 162.344 24.242 162.344 25.194C162.344 26.146 162.503 26.9733 162.82 27.676C163.16 28.356 163.636 28.8887 164.248 29.274C164.883 29.6367 165.619 29.818 166.458 29.818ZM178.274 34V16.388H183.272V19.04H183.442C183.85 18.0653 184.451 17.34 185.244 16.864C186.06 16.388 187.069 16.15 188.27 16.15H190.31V21.08H187.556C186.332 21.08 185.357 21.454 184.632 22.202C183.929 22.9273 183.578 23.9473 183.578 25.262V34H178.274ZM199.908 34.408C198.072 34.408 196.429 34.0113 194.978 33.218C193.527 32.4247 192.383 31.3367 191.544 29.954C190.728 28.5487 190.32 26.962 190.32 25.194C190.32 23.426 190.728 21.8507 191.544 20.468C192.36 19.0627 193.493 17.9633 194.944 17.17C196.417 16.3767 198.072 15.98 199.908 15.98C201.744 15.98 203.387 16.3767 204.838 17.17C206.311 17.9407 207.456 19.0287 208.272 20.434C209.088 21.8393 209.496 23.426 209.496 25.194C209.496 26.962 209.088 28.5487 208.272 29.954C207.456 31.3367 206.311 32.4247 204.838 33.218C203.387 34.0113 201.744 34.408 199.908 34.408ZM199.908 29.648C200.747 29.648 201.472 29.4667 202.084 29.104C202.719 28.7413 203.206 28.2313 203.546 27.574C203.886 26.894 204.056 26.1007 204.056 25.194C204.056 24.2873 203.886 23.5053 203.546 22.848C203.206 22.168 202.719 21.6467 202.084 21.284C201.472 20.9213 200.747 20.74 199.908 20.74C199.069 20.74 198.333 20.9213 197.698 21.284C197.086 21.6467 196.61 22.168 196.27 22.848C195.93 23.5053 195.76 24.2873 195.76 25.194C195.76 26.1007 195.93 26.894 196.27 27.574C196.61 28.2313 197.086 28.7413 197.698 29.104C198.333 29.4667 199.069 29.648 199.908 29.648ZM213.355 16.014C213.355 14.0647 213.865 12.58 214.885 11.56C215.905 10.54 217.39 10.03 219.339 10.03H223.725V14.28H220.529C219.872 14.28 219.373 14.45 219.033 14.79C218.693 15.13 218.523 15.6287 218.523 16.286V18.326L218.659 18.53V34H213.355V16.014ZM209.785 20.91V16.66H215.939L216.517 16.83H223.079V20.91H209.785ZM225.511 34V16.388H230.815V34H225.511ZM228.163 14.314C227.325 14.314 226.633 14.0533 226.089 13.532C225.545 12.988 225.273 12.3193 225.273 11.526C225.273 10.7327 225.545 10.0753 226.089 9.554C226.633 9.01 227.325 8.738 228.163 8.738C229.002 8.738 229.693 9.01 230.237 9.554C230.781 10.0753 231.053 10.7327 231.053 11.526C231.053 12.3193 230.781 12.988 230.237 13.532C229.693 14.0533 229.002 14.314 228.163 14.314ZM234.56 34V10.2H239.864V34H234.56ZM252.007 34.408C250.216 34.408 248.584 34.0113 247.111 33.218C245.66 32.402 244.515 31.2913 243.677 29.886C242.838 28.4807 242.419 26.9167 242.419 25.194C242.419 23.4487 242.838 21.8733 243.677 20.468C244.515 19.0627 245.66 17.9633 247.111 17.17C248.584 16.3767 250.216 15.98 252.007 15.98C253.775 15.98 255.373 16.3653 256.801 17.136C258.251 17.9067 259.396 19.0173 260.235 20.468C261.096 21.9187 261.527 23.6187 261.527 25.568C261.527 25.7493 261.527 25.9533 261.527 26.18C261.527 26.384 261.527 26.5767 261.527 26.758H245.275V23.358H257.515L256.223 24.242C256.155 23.4487 255.928 22.7687 255.543 22.202C255.18 21.6127 254.693 21.1707 254.081 20.876C253.491 20.5587 252.811 20.4 252.041 20.4C251.157 20.4 250.386 20.5927 249.729 20.978C249.094 21.3407 248.607 21.8847 248.267 22.61C247.927 23.3353 247.757 24.1967 247.757 25.194C247.757 26.1913 247.927 27.0527 248.267 27.778C248.607 28.5033 249.094 29.0587 249.729 29.444C250.386 29.8067 251.157 29.988 252.041 29.988C252.925 29.988 253.661 29.8407 254.251 29.546C254.84 29.2513 255.327 28.8093 255.713 28.22H261.153C260.813 29.444 260.201 30.532 259.317 31.484C258.455 32.4133 257.39 33.1387 256.121 33.66C254.851 34.1587 253.48 34.408 252.007 34.408Z" fill="#A101DD"/>
<path d="M0 42.1229H33.2609V8.86914H0V42.13V42.1229ZM26.6115 35.4807H6.64934V15.5185H26.6044V35.4736L26.6186 35.4877L26.6115 35.4807Z" fill="black"/>
<path d="M51 13.3037H45.4565V37.695H51V13.3037Z" fill="black"/>
<path d="M62.8541 19.2183H55.4346V13.3037H76.4998V19.2256H69.0803V37.695H62.84V19.2256L62.8541 19.2183Z" fill="black"/>
<path d="M79.8401 13.3037H85.5348V19.0313H91.0482C93.0765 19.0458 94.6727 19.6847 95.8297 20.9478C96.9868 22.2182 97.5653 24.0765 97.5653 26.5447V37.695H91.8707V27.4158C91.8707 26.3705 91.5988 25.5574 91.0761 24.9767C90.5324 24.4032 89.8005 24.1056 88.8665 24.1056L85.5208 24.1491V37.695H79.8262V13.3037H79.8401Z" fill="black"/>
<path d="M135.35 37.695C134.467 37.695 133.695 37.5528 133.069 37.2471C132.443 36.9486 131.887 36.6144 131.456 36.2661C130.941 35.8609 130.517 35.3632 130.19 34.7945H129.856V37.1832H124.174V13.3037H129.856V18.9697L135.357 18.9412C136.408 18.9412 137.381 19.1616 138.306 19.581C139.231 20.0147 140.038 20.6332 140.74 21.4436C141.443 22.2541 141.999 23.2422 142.41 24.3939C142.82 25.5456 143.022 26.8608 143.022 28.311C143.022 29.7613 142.82 31.0764 142.41 32.2281C141.999 33.3798 141.45 34.3751 140.74 35.1784C140.038 35.9888 139.224 36.6073 138.306 37.041C137.381 37.4746 136.394 37.6808 135.357 37.6808V37.695H135.35ZM133.514 32.74C134.606 32.74 135.489 32.3632 136.171 31.6096C136.853 30.8632 137.186 29.7613 137.186 28.3039C137.186 26.8465 136.853 25.7446 136.171 24.9982C135.489 24.2517 134.606 23.8678 133.514 23.8678H129.849V28.2968C129.849 29.7542 130.183 30.8561 130.864 31.6025C131.546 32.349 132.429 32.7329 133.521 32.7329" fill="black"/>
<path d="M157.04 40.63V16.388H162.038V18.802H162.208C162.752 17.9407 163.534 17.2607 164.554 16.762C165.574 16.2407 166.673 15.98 167.852 15.98C169.28 15.98 170.606 16.354 171.83 17.102C173.077 17.85 174.063 18.9267 174.788 20.332C175.536 21.7373 175.91 23.358 175.91 25.194C175.91 27.03 175.536 28.6507 174.788 30.056C174.063 31.4613 173.077 32.538 171.83 33.286C170.606 34.034 169.28 34.408 167.852 34.408C166.741 34.408 165.699 34.1813 164.724 33.728C163.772 33.2747 163.035 32.6627 162.514 31.892H162.344V40.63H157.04ZM166.458 29.818C167.251 29.818 167.954 29.6367 168.566 29.274C169.178 28.8887 169.643 28.3447 169.96 27.642C170.3 26.9393 170.47 26.1233 170.47 25.194C170.47 24.242 170.3 23.426 169.96 22.746C169.643 22.0433 169.178 21.5107 168.566 21.148C167.954 20.7627 167.251 20.57 166.458 20.57C165.619 20.57 164.883 20.7627 164.248 21.148C163.636 21.5107 163.16 22.0433 162.82 22.746C162.503 23.426 162.344 24.242 162.344 25.194C162.344 26.146 162.503 26.9733 162.82 27.676C163.16 28.356 163.636 28.8887 164.248 29.274C164.883 29.6367 165.619 29.818 166.458 29.818ZM178.274 34V16.388H183.272V19.04H183.442C183.85 18.0653 184.451 17.34 185.244 16.864C186.06 16.388 187.069 16.15 188.27 16.15H190.31V21.08H187.556C186.332 21.08 185.357 21.454 184.632 22.202C183.929 22.9273 183.578 23.9473 183.578 25.262V34H178.274ZM199.908 34.408C198.072 34.408 196.429 34.0113 194.978 33.218C193.527 32.4247 192.383 31.3367 191.544 29.954C190.728 28.5487 190.32 26.962 190.32 25.194C190.32 23.426 190.728 21.8507 191.544 20.468C192.36 19.0627 193.493 17.9633 194.944 17.17C196.417 16.3767 198.072 15.98 199.908 15.98C201.744 15.98 203.387 16.3767 204.838 17.17C206.311 17.9407 207.456 19.0287 208.272 20.434C209.088 21.8393 209.496 23.426 209.496 25.194C209.496 26.962 209.088 28.5487 208.272 29.954C207.456 31.3367 206.311 32.4247 204.838 33.218C203.387 34.0113 201.744 34.408 199.908 34.408ZM199.908 29.648C200.747 29.648 201.472 29.4667 202.084 29.104C202.719 28.7413 203.206 28.2313 203.546 27.574C203.886 26.894 204.056 26.1007 204.056 25.194C204.056 24.2873 203.886 23.5053 203.546 22.848C203.206 22.168 202.719 21.6467 202.084 21.284C201.472 20.9213 200.747 20.74 199.908 20.74C199.069 20.74 198.333 20.9213 197.698 21.284C197.086 21.6467 196.61 22.168 196.27 22.848C195.93 23.5053 195.76 24.2873 195.76 25.194C195.76 26.1007 195.93 26.894 196.27 27.574C196.61 28.2313 197.086 28.7413 197.698 29.104C198.333 29.4667 199.069 29.648 199.908 29.648ZM213.355 16.014C213.355 14.0647 213.865 12.58 214.885 11.56C215.905 10.54 217.39 10.03 219.339 10.03H223.725V14.28H220.529C219.872 14.28 219.373 14.45 219.033 14.79C218.693 15.13 218.523 15.6287 218.523 16.286V18.326L218.659 18.53V34H213.355V16.014ZM209.785 20.91V16.66H215.939L216.517 16.83H223.079V20.91H209.785ZM225.511 34V16.388H230.815V34H225.511ZM228.163 14.314C227.325 14.314 226.633 14.0533 226.089 13.532C225.545 12.988 225.273 12.3193 225.273 11.526C225.273 10.7327 225.545 10.0753 226.089 9.554C226.633 9.01 227.325 8.738 228.163 8.738C229.002 8.738 229.693 9.01 230.237 9.554C230.781 10.0753 231.053 10.7327 231.053 11.526C231.053 12.3193 230.781 12.988 230.237 13.532C229.693 14.0533 229.002 14.314 228.163 14.314ZM234.56 34V10.2H239.864V34H234.56ZM252.007 34.408C250.216 34.408 248.584 34.0113 247.111 33.218C245.66 32.402 244.515 31.2913 243.677 29.886C242.838 28.4807 242.419 26.9167 242.419 25.194C242.419 23.4487 242.838 21.8733 243.677 20.468C244.515 19.0627 245.66 17.9633 247.111 17.17C248.584 16.3767 250.216 15.98 252.007 15.98C253.775 15.98 255.373 16.3653 256.801 17.136C258.251 17.9067 259.396 19.0173 260.235 20.468C261.096 21.9187 261.527 23.6187 261.527 25.568C261.527 25.7493 261.527 25.9533 261.527 26.18C261.527 26.384 261.527 26.5767 261.527 26.758H245.275V23.358H257.515L256.223 24.242C256.155 23.4487 255.928 22.7687 255.543 22.202C255.18 21.6127 254.693 21.1707 254.081 20.876C253.491 20.5587 252.811 20.4 252.041 20.4C251.157 20.4 250.386 20.5927 249.729 20.978C249.094 21.3407 248.607 21.8847 248.267 22.61C247.927 23.3353 247.757 24.1967 247.757 25.194C247.757 26.1913 247.927 27.0527 248.267 27.778C248.607 28.5033 249.094 29.0587 249.729 29.444C250.386 29.8067 251.157 29.988 252.041 29.988C252.925 29.988 253.661 29.8407 254.251 29.546C254.84 29.2513 255.327 28.8093 255.713 28.22H261.153C260.813 29.444 260.201 30.532 259.317 31.484C258.455 32.4133 257.39 33.1387 256.121 33.66C254.851 34.1587 253.48 34.408 252.007 34.408Z" fill="#A101DD"/>
<path d="M0 42.1229H33.2609V8.86914H0V42.13V42.1229ZM26.6115 35.4807H6.64934V15.5185H26.6044V35.4736L26.6186 35.4877L26.6115 35.4807Z" fill="black"/>
<path d="M51 13.3037H45.4565V37.695H51V13.3037Z" fill="black"/>
<path d="M62.8541 19.2183H55.4346V13.3037H76.4998V19.2256H69.0803V37.695H62.84V19.2256L62.8541 19.2183Z" fill="black"/>
<path d="M79.8401 13.3037H85.5348V19.0313H91.0482C93.0765 19.0458 94.6727 19.6847 95.8297 20.9478C96.9868 22.2182 97.5653 24.0765 97.5653 26.5447V37.695H91.8707V27.4158C91.8707 26.3705 91.5988 25.5574 91.0761 24.9767C90.5324 24.4032 89.8005 24.1056 88.8665 24.1056L85.5208 24.1491V37.695H79.8262V13.3037H79.8401Z" fill="black"/>
<path d="M135.35 37.695C134.467 37.695 133.695 37.5528 133.069 37.2471C132.443 36.9486 131.887 36.6144 131.456 36.2661C130.941 35.8609 130.517 35.3632 130.19 34.7945H129.856V37.1832H124.174V13.3037H129.856V18.9697L135.357 18.9412C136.408 18.9412 137.381 19.1616 138.306 19.581C139.231 20.0147 140.038 20.6332 140.74 21.4436C141.443 22.2541 141.999 23.2422 142.41 24.3939C142.82 25.5456 143.022 26.8608 143.022 28.311C143.022 29.7613 142.82 31.0764 142.41 32.2281C141.999 33.3798 141.45 34.3751 140.74 35.1784C140.038 35.9888 139.224 36.6073 138.306 37.041C137.381 37.4746 136.394 37.6808 135.357 37.6808V37.695H135.35ZM133.514 32.74C134.606 32.74 135.489 32.3632 136.171 31.6096C136.853 30.8632 137.186 29.7613 137.186 28.3039C137.186 26.8465 136.853 25.7446 136.171 24.9982C135.489 24.2517 134.606 23.8678 133.514 23.8678H129.849V28.2968C129.849 29.7542 130.183 30.8561 130.864 31.6025C131.546 32.349 132.429 32.7329 133.521 32.7329" fill="black"/>
<path d="M19.9564 22.1729H13.3042V28.825H19.9564V22.1729Z" fill="black"/>
<path d="M108.52 37.7322C106.491 37.7322 104.894 37.132 103.736 35.9245C102.579 34.7171 102 32.9438 102 30.6048V20.0069H107.697V29.7769C107.697 30.7704 107.969 31.5432 108.492 32.0952C109.029 32.6403 109.768 32.9231 110.702 32.9231C111.637 32.9231 112.425 32.5782 113.08 31.8951C113.721 31.2051 114.042 30.2806 114.042 29.1076V20H119.739V37.2286H114.042V34.9103H113.708C113.401 35.4553 112.989 35.9383 112.501 36.3385C112.076 36.6973 111.539 37.0147 110.897 37.2906C110.256 37.5804 109.454 37.7253 108.52 37.7253V37.7391V37.7322Z" fill="black"/>
</svg>
