<svg width="21" height="19" viewBox="0 0 21 19" fill="none" xmlns="http://www.w3.org/2000/svg">
<path fill-rule="evenodd" clip-rule="evenodd" d="M6.61481 18.4416C7.11884 18.6823 7.67027 18.8073 8.22881 18.8076H16.2478C17.142 18.8076 18.0068 18.488 18.6862 17.9066C19.3655 17.3251 19.8147 16.5201 19.9528 15.6366L20.8918 9.63208C20.959 9.204 20.9326 8.76646 20.8145 8.34955C20.6964 7.93264 20.4895 7.54626 20.2078 7.21698C19.9261 6.8877 19.5765 6.62335 19.1829 6.44211C18.7893 6.26087 18.3611 6.16704 17.9278 6.16708H13.0048V2.63308C13.0055 2.09318 12.827 1.56833 12.4972 1.14088C12.1673 0.713425 11.7049 0.407568 11.1825 0.2713C10.6601 0.135033 10.1072 0.176066 9.61066 0.387961C9.11408 0.599857 8.70191 0.970622 8.43881 1.44208L5.32331 7.00708C5.13532 7.34303 5.03668 7.7216 5.03681 8.10658V16.2696C5.03675 16.6945 5.15703 17.1108 5.38373 17.4702C5.61043 17.8297 5.93429 18.1176 6.31781 18.3006L6.61481 18.4416ZM1.56581 7.28158C1.36949 7.28138 1.17506 7.31988 0.993623 7.39487C0.812189 7.46986 0.647315 7.57988 0.508425 7.71863C0.369536 7.85738 0.259354 8.02214 0.18418 8.2035C0.109006 8.38486 0.0703124 8.57926 0.0703125 8.77558V16.4436C0.0703125 16.8402 0.227874 17.2206 0.508334 17.5011C0.788795 17.7815 1.16918 17.9391 1.56581 17.9391H2.30981C2.50872 17.9391 2.69949 17.8601 2.84014 17.7194C2.98079 17.5788 3.05981 17.388 3.05981 17.1891V8.03008C3.05981 7.83117 2.98079 7.6404 2.84014 7.49975C2.69949 7.3591 2.50872 7.28008 2.30981 7.28008L1.56581 7.28158Z" fill="#A101DD"/>
</svg>
