<svg width="26" height="22" viewBox="0 0 26 22" fill="none" xmlns="http://www.w3.org/2000/svg">
<path fill-rule="evenodd" clip-rule="evenodd" d="M21.0757 16.6L24.7741 20.2983L23.5374 21.5362L3.73675 1.73783L4.97341 0.5L8.17008 3.69433C9.7162 3.12288 11.3517 2.83133 13.0001 2.83333C18.6094 2.83333 23.4674 6.156 25.8334 11C24.7446 13.2377 23.1081 15.1639 21.0757 16.6ZM11.6281 7.1535L16.8466 12.372C17.1069 11.6438 17.1551 10.8567 16.9856 10.1022C16.8161 9.34764 16.4358 8.65678 15.889 8.10996C15.3421 7.56313 14.6513 7.18283 13.8968 7.0133C13.1422 6.84377 12.3551 6.89199 11.6269 7.15233L11.6281 7.1535ZM17.8312 18.3068C16.2847 18.878 14.6487 19.1692 13.0001 19.1667C7.39075 19.1667 2.53275 15.844 0.166748 11C1.25556 8.76235 2.8921 6.83607 4.92441 5.4L9.15358 9.628C8.89323 10.3562 8.84502 11.1433 9.01455 11.8978C9.18408 12.6524 9.56438 13.3432 10.1112 13.89C10.658 14.4369 11.3489 14.8172 12.1034 14.9867C12.8579 15.1562 13.6451 15.108 14.3732 14.8477L17.8312 18.3057V18.3068Z" fill="black"/>
</svg>
